<?xml version="1.0" encoding="utf-8"?>
<!-- Generator: Adobe Illustrator 18.1.1, SVG Export Plug-In . SVG Version: 6.00 Build 0)  -->
<svg version="1.1" id="Layer_1" xmlns="http://www.w3.org/2000/svg" xmlns:xlink="http://www.w3.org/1999/xlink" x="0px" y="0px"
	 viewBox="0 0 861.31 270.238" enable-background="new 0 0 861.31 270.238" xml:space="preserve">
<g>
	<path fill="#4D5255" d="M381.117,86.141l0.053,38.348l-28.201,0.036V32.337l28.105-0.057v12.263
		c2.323-4.562,5.792-8.13,10.435-10.728c4.545-2.646,9.416-3.942,14.643-3.942c1.609,0,3.072,0.042,4.402,0.142
		c1.287,0.212,2.193,0.383,2.703,0.467l-9.188,28.842c-0.23-0.078-0.75-0.248-1.53-0.431c-0.823-0.108-1.854-0.15-3.171-0.15
		c-1.812,0-3.892,0.299-6.202,0.879c-4.123,1.218-6.214,2.634-8.467,5.55c-2.193,2.84-3.256,8.956-3.467,14.4
		C381.144,81.481,381.117,83.988,381.117,86.141z"/>
	<path fill="#4D5255" d="M511.142,57.525l-58.164,36.544c0.808,1.006,2.676,2.208,5.621,3.611c2.393,1.238,5.862,1.854,10.407,1.854
		c0.594,0,1.26,0,1.967,0c3.229-0.34,6.5-1.183,9.815-2.578c3.213-1.416,5.988-2.917,8.296-4.545c2.337-1.6,3.512-2.49,3.512-2.717
		l14.482,22.185c-1.328,1.021-3.64,2.535-6.979,4.545c-3.298,2.012-7.728,4.079-13.279,6.195
		c-5.637,2.115-11.567,3.221-17.812,3.319c-0.213,0-0.424,0-0.608,0c-9.062,0-17.358-2.066-24.944-6.187
		c-7.831-4.106-14.019-9.842-18.548-17.19c-4.545-7.362-6.868-15.573-6.965-24.643c0-0.19,0-0.403,0-0.623
		c0-7.851,1.81-15.284,5.478-22.349c3.696-7.166,8.862-13.055,15.517-17.672c6.667-4.629,14.113-7.376,22.355-8.311
		c2.138-0.17,4.205-0.283,6.215-0.283c5.551,0,10.762,0.913,15.717,2.676c6.527,2.662,11.78,5.818,15.729,9.542
		c3.88,3.837,6.754,7.208,8.565,10.124C509.357,53.95,510.547,56.124,511.142,57.525z M444.684,76.711l33.085-20.674
		c-0.721-0.493-1.981-1.103-3.78-1.804c-1.91-0.687-4.275-1.069-7.107-1.069c-6.23,0-11.481,2.38-15.717,7.094
		C446.836,65.08,444.684,70.559,444.684,76.711z"/>
	<path fill="#4D5255" d="M601.135,59.041v65.583l-25.953-0.042v-7.385c0,0.292-0.977,1.142-2.874,2.558
		c-2.024,1.521-4.588,2.889-7.717,4.085c-3.215,1.295-6.896,2.002-11.016,2.102c-0.199,0-0.426,0-0.637,0
		c-5.819,0-11.271-1.272-16.299-3.759c-5.337-2.627-9.527-6.335-12.545-11.178c-3.115-4.744-4.685-10.393-4.685-16.935
		c0-6.031,1.57-11.468,4.685-16.29c3.018-4.85,7.308-8.615,12.828-11.318c4.943-2.438,10.28-3.654,16.016-3.654
		c0.608,0,1.229,0,1.854,0c3.597,0.079,6.883,0.687,9.799,1.786c2.805,1.132,5.111,2.335,6.924,3.681l2.747,1.932
		c0-3.717-0.312-6.647-0.921-8.777c-0.919-3.319-2.675-5.813-5.281-7.513c-2.506-1.526-6.428-2.277-11.765-2.277
		c-0.326,0-0.639,0-0.922,0c-4.22,0-9.26,1.103-15.136,3.312c-5.904,2.208-9.232,3.666-9.939,4.374l5.282-25.654
		c0.212-0.199,2.181-0.701,5.874-1.524c3.753-0.8,7.533-1.515,11.328-2.13c3.737-0.61,7.378-0.936,10.889-1.048
		c0.636,0,1.218,0,1.799,0c6.045,0,11.693,0.977,16.946,2.881c5.636,2.216,10.166,5.543,13.594,9.96
		C599.452,46.241,601.135,51.974,601.135,59.041z M573.965,93.771c0-3.63-1.389-6.612-4.104-8.926
		c-2.594-2.117-5.763-3.165-9.501-3.165c-0.197,0-0.412,0-0.597,0c-3.639,0.205-6.71,1.289-9.217,3.328
		c-2.633,2.124-3.978,4.786-4.079,8.006c0,0.205,0,0.418,0,0.624c0,3.319,1.205,5.981,3.654,7.992
		c2.578,2.327,6.103,3.483,10.534,3.483c3.725,0,6.909-0.963,9.515-2.888C572.718,100.328,573.965,97.524,573.965,93.771z"/>
	<path fill="#4D5255" d="M619.316,124.624V2.108l28.856,0.036l-0.1,122.479H619.316z"/>
	<g>
		<path fill="#F29023" d="M754.832,57.525l-58.166,36.544c0.808,1.006,2.676,2.208,5.605,3.611
			c2.407,1.238,5.877,1.854,10.423,1.854c0.579,0,1.245,0,1.951,0c3.217-0.34,6.516-1.183,9.828-2.578
			c3.214-1.416,5.976-2.917,8.312-4.545c2.322-1.6,3.481-2.49,3.481-2.717l14.5,22.185c-1.317,1.021-3.653,2.535-6.967,4.545
			c-3.312,2.012-7.76,4.079-13.281,6.195c-5.648,2.115-11.61,3.221-17.824,3.319c-0.215,0-0.426,0-0.608,0
			c-9.062,0-17.359-2.066-24.949-6.187c-7.829-4.106-14.004-9.842-18.562-17.19c-4.517-7.362-6.854-15.573-6.952-24.643
			c0-0.19,0-0.403,0-0.623c0-7.851,1.825-15.284,5.452-22.349c3.723-7.166,8.892-13.055,15.546-17.672
			c6.639-4.629,14.102-7.376,22.37-8.311c2.125-0.17,4.179-0.283,6.202-0.283c5.549,0,10.774,0.913,15.716,2.676
			c6.542,2.662,11.766,5.818,15.718,9.542c3.905,3.837,6.768,7.208,8.566,10.124C753.033,53.95,754.249,56.124,754.832,57.525z
			 M688.368,76.711l33.076-20.674c-0.724-0.493-1.969-1.103-3.769-1.804c-1.909-0.687-4.289-1.069-7.104-1.069
			c-6.243,0-11.482,2.38-15.718,7.094C690.521,65.08,688.368,70.559,688.368,76.711z"/>
		<path fill="#F29023" d="M760.663,32.381l32.935-0.1l14.087,22.669l14.654-22.669l32.338,0.057l-31.432,44.077l32.764,47.997
			l-33.938-0.091l-15.266-25.4l-15.615,25.337h-34.054l33.953-47.843L760.663,32.381z"/>
	</g>
	<g>
		<g>
			<path fill="#4D5255" d="M463.098,170.341v-0.813l-0.127-1.519c-0.101-7.133-6.202-11.823-19.412-10.414
				c-2.452,0.358-5.158,0.828-9.264,2.21l-3.036,0.942l-1.967,0.712l3.15-11.352c1.397-0.35,2.808-0.713,4.191-0.935
				c27.99-5.855,40.292,3.151,40.162,19.174v4.344v37.932h-12.757v-7.719c-0.355,0.478-0.698,0.933-1.168,1.375
				c-5.631,6.215-13.353,8.666-21.649,6.904c-11.36-2.315-18.142-10.412-18.5-21.166c-0.355-14.388,11.817-24.7,28.094-21.671
				c3.616,0.719,7.024,2.137,10.645,4.688l0.925,0.592l0.713,0.577v-3.862H463.098z M446.139,201.493
				c10.175,1.889,17.317-3.877,17.429-11.71c0.115-6.912-5.5-12.407-14.295-12.407c-8.279,0-13.684,5.365-13.684,12.407
				C435.735,195.519,439.81,200.322,446.139,201.493z"/>
			<path fill="#4D5255" d="M549.333,149.272h12.898v9.38c0.214-0.698,0.569-1.406,1.042-2.008c3.148-5.361,6.798-7.841,12.742-8.782
				c1.88-0.213,3.876-0.334,5.743-0.106c6.799,0.819,10.761,3.641,13.343,8.801c0.227,0.569,0.484,1.276,0.712,1.867
				c0.343-0.47,0.697-1.068,1.055-1.638c4.561-6.459,9.008-8.924,17.205-9.137c12.757-0.241,18.843,7.613,18.745,27.595v2.131
				v33.417l-13-0.106v-34.714v-1.855l-0.131-4.119c-0.339-7.262-5.259-11.574-12.399-10.064c-5.616,1.283-9.737,6.887-9.834,16.038
				v1.766v32.885h-12.987v-34.423v-1.996v-3.72v-0.827c0-0.826,0-1.768-0.128-2.68c-1.055-6.099-8.779-9.729-14.965-6.099
				c-3.407,1.965-5.874,5.735-6.801,12.057c-0.128,0.927-0.243,1.967-0.243,3.039v1.873v32.841h-12.999L549.333,149.272
				L549.333,149.272z"/>
			<path fill="#4D5255" d="M658.233,192.008c0.44,0.569,0.812,1.183,1.281,1.766c4.646,5.367,11.36,7.599,19.071,5.846
				c3.976-0.826,7.839-2.939,11.702-6.556c0.685-0.607,1.27-1.298,1.982-1.998l8.437,8.191
				c-5.374,6.562-12.998,10.888-21.422,12.166c-23.89,3.875-42.591-15.203-38.273-37.795c2.554-13.47,12.288-22.934,25.859-25.151
				c12.529-2.123,22.933,1.852,32.199,12.623c0.814,0.94,1.638,1.996,2.452,3.168L658.233,192.008z M676.136,159.494
				c-7.613-1.661-15.338,1.504-19.785,8.282c-3.05,4.454-3.99,9.963-2.808,15.336l30.774-19.685
				C681.949,161.459,679.157,160.056,676.136,159.494z"/>
			<path fill="#4D5255" d="M710.074,149.103h12.856v8.851c0.384-0.598,0.714-1.168,1.184-1.768
				c3.406-4.434,6.784-6.792,11.716-7.839c15.909-3.5,25.045,4.809,25.402,21.779v2.909v0.698v36.953h-13.257v-34.944v-2.339v-0.713
				v-3.278c-0.085-7.011-5.474-11.344-13.683-9.706c-3.605,0.696-7.025,3.135-9.136,6.905c-1.154,1.867-1.725,3.87-1.84,7.504v3.366
				v33.14h-13.24L710.074,149.103L710.074,149.103z"/>
			<path fill="#4D5255" d="M817.346,195.627c0.57,0.47,1.168,0.814,1.868,1.168c5.159,2.915,9.834,3.977,13.812,3.4
				c5.274-0.713,8.195-3.045,8.907-5.616c1.398-4.562-0.24-7.127-5.759-9.494c-0.454-0.12-0.941-0.327-1.41-0.449l-5.246-1.638
				l-3.748-1.298l-2.24-0.712c-7.825-2.809-11.928-10.036-9.478-19.528c1.168-4.674,4.561-8.901,10.192-11.608
				c3.863-1.862,9.136-2.687,15.794-2.096c3.878,0.492,7.841,1.517,12.999,4.098c0.813,0.227,1.526,0.705,2.223,1.062l-4.446,10.028
				c-1.867-1.241-3.863-2.065-5.858-2.656c-3.963-1.177-6.771-1.505-8.893-1.278c-5.031,0.585-7.826,2.693-8.767,5.358
				c-1.17,3.521,0.229,6.223,4.091,7.748l2.454,0.918l1.31,0.471l4.79,1.618c11.688,3.99,15.322,7.617,16.265,15.601
				c1.638,13.112-11.248,24.224-30.205,20.589c-3.622-0.685-7.254-1.861-10.647-3.628c-0.927-0.472-1.994-0.927-2.939-1.518
				L817.346,195.627z"/>
		</g>
		<path fill="#4D5255" d="M366.291,224.29v-22.797c0.455,0.592,0.925,1.177,1.395,1.747c6.814,7.141,15.323,10.071,25.173,8.309
			c1.982-0.365,3.849-0.92,5.73-1.753c11.589-4.55,19.185-16.023,19.185-29.733c0-16.393-10.519-29.123-24.687-31.715
			c-11.262-1.995-18.958,0.825-25.871,8.545c-0.47,0.464-0.925,0.94-1.296,1.531v-9.243l-12.856,0.092v75.018H366.291
			L366.291,224.29z M369.539,168.346c3.778-5.403,9.282-8.29,15.823-8.29c6.438,0,11.944,2.886,15.792,8.29
			c2.238,3.405,3.509,7.397,3.509,11.587c0,4.233-1.27,8.212-3.509,11.504c-3.848,5.486-9.353,8.411-15.792,8.411
			c-6.542,0-12.044-2.924-15.823-8.411c-2.323-3.292-3.491-7.271-3.491-11.504C366.048,175.742,367.216,171.752,369.539,168.346z"/>
		<polygon fill="#4D5255" points="496.423,224.29 510.648,224.29 542.719,149.545 528.893,149.473 512.601,189.904 494.599,149.395 
			480.06,149.473 506.173,202.304 		"/>
		<path fill="#4D5255" d="M801.708,199.382c-8.894,1.633-13.567-2.233-13.567-11.352v-1.997v-26.099h13.696l-0.143-10.31h-13.554
			V135.39h-13.33v14.234h-5.286l-0.087,10.31h5.374v25.972v2.01c0,17.331,7.356,24.472,23.392,23.267l2.579-0.22l1.399-0.235
			l1.281-11.695C802.907,199.14,802.293,199.255,801.708,199.382z"/>
	</g>
	<g>
		<g>
			<path fill="#4D5255" d="M80,127.35c-0.432-2.238-0.778-4.247-1.069-6.009c-10.7-3.704-21.66-7.752-32.656-12.172
				C46.274,109.169,59.591,117.061,80,127.35z"/>
			<path fill="#4D5255" d="M250.566,49.66c0,0-31.832-32.771-85.207-43.864c0,0-95.964-26.119-160.777,81.524
				c0,0,53.526-70.429,126.964-67.253c0,0,47.243-0.246,93.016,34.852c0,0,64.208,52.219,42.778,85.615
				c0,0-7.801,23.305-77.672,11.62c0,0-33.79-6.683-78.412-20.295c0.855,3.504,2.123,8.047,3.176,11.751
				c32.788,14.37,72.091,28.329,105.356,30.731c0,0,63.929,8.996,72.389-40.671C292.177,133.67,300.357,96.668,250.566,49.66z"/>
		</g>
		<path fill="#F29023" d="M161.342,261.948c0,0-67.845-117.745-56.735-172.948c0,0,5.663-46.746,67.021-27.736
			c0,0,40.492,14.171,78.938,43.289c0,0-40.817-52.793-91.02-64.95c0,0-63.929-19.635-76.618,48.85
			C82.93,88.455,65.911,159.855,161.342,261.948z"/>
	</g>
	<g>
		<g>
			<path fill="#656768" d="M408.252,260.563l8.148-24.59h3.766l8.068,24.59h-2.581l-2.5-7.645h-9.933l-2.468,7.645H408.252z
				 M422.39,250.533l-4.156-12.938l-4.22,12.938H422.39z"/>
		</g>
		<g>
			<path fill="#656768" d="M454.27,258.144c-2.111,1.851-4.162,2.775-6.153,2.775c-2.1,0.011-3.844-0.819-5.234-2.49
				c-1.391-1.673-2.086-3.85-2.086-6.534c0-2.704,0.695-4.904,2.086-6.598c1.39-1.693,3.146-2.54,5.267-2.54
				c2.013,0,4.003,0.86,5.974,2.581v-9.366h2.369v19.136c0,2.447,0.201,4.263,0.601,5.454h-2.435
				C454.42,259.73,454.291,258.924,454.27,258.144z M454.124,256.115v-8.684c-1.938-1.721-3.82-2.581-5.65-2.581
				c-1.591,0-2.852,0.609-3.781,1.826c-0.931,1.219-1.396,2.887-1.396,5.007c0,2.23,0.47,3.969,1.412,5.219
				c0.941,1.251,2.196,1.876,3.766,1.876C450.238,258.778,452.121,257.89,454.124,256.115z"/>
		</g>
		<g>
			<path fill="#656768" d="M462.791,239.024v-2.825h2.369v2.825H462.791z M462.791,260.563v-17.449h2.369v17.449H462.791z"/>
		</g>
		<g>
			<path fill="#656768" d="M475.16,260.563l-6.185-17.449h2.63l4.674,14.122l4.691-14.122h2.565l-6.216,17.449H475.16z"/>
		</g>
		<g>
			<path fill="#656768" d="M487.35,239.024v-2.825h2.369v2.825H487.35z M487.35,260.563v-17.449h2.369v17.449H487.35z"/>
		</g>
		<g>
			<path fill="#656768" d="M493.858,257.543l2.029-1.429c1.818,1.819,3.636,2.727,5.453,2.727c1.136-0.011,2.054-0.292,2.752-0.844
				c0.697-0.552,1.041-1.244,1.03-2.077c0-1.657-1.65-2.825-4.951-3.505c-3.831-0.781-5.745-2.442-5.745-4.984
				c0-1.342,0.551-2.456,1.656-3.343c1.104-0.888,2.537-1.33,4.301-1.33c2.63,0,4.745,0.892,6.347,2.677l-1.802,1.607
				c-1.32-1.513-2.824-2.271-4.512-2.271c-1.083,0-1.951,0.228-2.606,0.689c-0.654,0.459-0.987,1.064-0.997,1.81
				c0,1.417,1.32,2.38,3.961,2.889c4.5,0.876,6.752,2.77,6.752,5.68c0,1.451-0.566,2.661-1.696,3.629
				c-1.131,0.967-2.616,1.451-4.456,1.451C498.809,260.919,496.304,259.794,493.858,257.543z"/>
		</g>
		<g>
			<path fill="#656768" d="M512.071,239.024v-2.825h2.369v2.825H512.071z M512.071,260.563v-17.449h2.369v17.449H512.071z"/>
		</g>
		<g>
			<path fill="#656768" d="M519.245,251.895c0-2.748,0.738-4.961,2.216-6.639c1.477-1.677,3.367-2.51,5.672-2.499
				c2.24,0,4.101,0.863,5.584,2.588c1.482,1.725,2.223,3.941,2.223,6.648c0,2.641-0.736,4.788-2.207,6.443
				c-1.472,1.657-3.262,2.483-5.373,2.483c-2.359,0-4.301-0.84-5.826-2.524C520.009,256.713,519.245,254.547,519.245,251.895z
				 M532.442,251.765c0-2.132-0.471-3.825-1.413-5.08c-0.941-1.255-2.218-1.883-3.831-1.883c-1.677,0-3.006,0.646-3.984,1.94
				c-0.979,1.292-1.469,2.978-1.469,5.055c0,2.111,0.492,3.818,1.477,5.121c0.985,1.305,2.289,1.956,3.912,1.956
				c1.559-0.009,2.832-0.662,3.823-1.956C531.947,255.626,532.442,253.908,532.442,251.765z"/>
		</g>
		<g>
			<path fill="#656768" d="M542.115,247.075v13.488h-2.369v-17.449h2.369v2.029c2.641-1.591,4.854-2.385,6.639-2.385
				c1.483,0,2.673,0.5,3.572,1.502c0.898,1,1.347,2.35,1.347,4.049v12.255h-2.354v-11.639c0-2.65-0.996-3.976-2.986-3.976
				C546.601,244.948,544.528,245.656,542.115,247.075z"/>
		</g>
		<g>
			<path fill="#656768" d="M568.833,251.895c0-2.748,0.738-4.961,2.216-6.639c1.477-1.677,3.367-2.51,5.672-2.499
				c2.24,0,4.101,0.863,5.585,2.588c1.482,1.725,2.223,3.941,2.223,6.648c0,2.641-0.736,4.788-2.207,6.443
				c-1.472,1.657-3.262,2.483-5.373,2.483c-2.359,0-4.301-0.84-5.826-2.524C569.597,256.713,568.833,254.547,568.833,251.895z
				 M582.03,251.765c0-2.132-0.471-3.825-1.413-5.08c-0.941-1.255-2.218-1.883-3.831-1.883c-1.677,0-3.006,0.646-3.985,1.94
				c-0.979,1.292-1.469,2.978-1.469,5.055c0,2.111,0.492,3.818,1.477,5.121c0.985,1.305,2.289,1.956,3.912,1.956
				c1.559-0.009,2.832-0.662,3.823-1.956C581.535,255.626,582.03,253.908,582.03,251.765z"/>
		</g>
		<g>
			<path fill="#656768" d="M586.915,243.113h3.262v-2.727c0-1.374,0.448-2.455,1.34-3.245c0.892-0.79,2.096-1.18,3.611-1.168
				c0.487,0,0.892,0.009,1.218,0.032v2.223c-0.282-0.043-0.645-0.064-1.087-0.064c-1.818,0-2.727,0.806-2.727,2.419v2.531h3.619
				v2.159h-3.619v15.29h-2.354v-15.29h-3.262V243.113z"/>
		</g>
		<g>
			<path fill="#656768" d="M621.34,243.679c-1.24-0.751-2.917-1.132-4.981-1.132c-2.44,0-4.339,0.541-5.643,1.607
				c-1.305,1.068-1.967,2.597-1.967,4.544c0,2.125,0.928,3.832,2.758,5.073c-1.56,0.577-2.352,1.556-2.352,2.912
				c0,1.166,0.698,2.125,2.076,2.848c-2.11,0.573-3.179,1.767-3.179,3.547c0,3.067,2.899,4.624,8.616,4.624
				c6.04,0,9.102-1.878,9.102-5.58c0-1.737-0.584-2.962-1.736-3.645c-1.147-0.682-3.035-1.061-5.613-1.125
				c-2.658-0.087-4.247-0.219-4.723-0.395c-0.474-0.178-0.703-0.463-0.703-0.874c0-0.536,0.384-1.015,1.146-1.431
				c0.811,0.107,1.628,0.162,2.428,0.162c2.239-0.011,4.044-0.58,5.367-1.687c1.327-1.109,2-2.611,2-4.462
				c0-1.18-0.285-2.236-0.849-3.138c0.614-0.324,1.272-0.486,1.956-0.486h0.89v-3.012h-0.469
				C624.184,242.029,622.796,242.584,621.34,243.679z M619.69,248.666c0.01,0.906-0.312,1.687-0.957,2.316
				c-0.644,0.628-1.442,0.947-2.373,0.947c-0.917,0-1.714-0.322-2.365-0.956c-0.651-0.634-0.987-1.413-0.997-2.307
				c0.01-0.897,0.341-1.675,0.981-2.31c0.64-0.634,1.453-0.956,2.415-0.956c0.875,0,1.655,0.322,2.316,0.956
				C619.371,246.991,619.701,247.769,619.69,248.666z M617.123,264.623c-3.395,0-5.115-0.753-5.115-2.241
				c0-0.849,0.537-1.527,1.598-2.017l5.64,0.504c0.836,0.073,1.473,0.256,1.894,0.539c0.416,0.281,0.622,0.669,0.61,1.152
				C621.751,263.929,620.195,264.623,617.123,264.623z"/>
			<rect x="628.796" y="235.34" fill="#656768" width="4.539" height="25.252"/>
			<path fill="#656768" d="M645.139,242.515c-2.281,0-4.146,0.84-5.541,2.494c-1.393,1.652-2.101,3.886-2.101,6.641
				c0,2.809,0.759,5.073,2.256,6.732c1.497,1.659,3.468,2.501,5.857,2.501c2.358,0,4.301-0.847,5.775-2.519
				c1.475-1.666,2.224-3.937,2.224-6.746c0.01-2.841-0.735-5.091-2.215-6.691C649.912,243.328,647.807,242.515,645.139,242.515z
				 M649.135,251.327c0,4.149-1.213,6.253-3.606,6.253c-2.318,0-3.493-1.935-3.493-5.751c0-3.975,1.191-5.991,3.541-5.991
				c1.087,0,1.962,0.482,2.598,1.431C648.812,248.223,649.135,249.588,649.135,251.327z"/>
			<path fill="#656768" d="M667.166,242.547c-1.723,0-3.357,0.806-4.856,2.392v-9.599h-4.539v25.252h4.539v-2.022
				c1.595,1.536,3.229,2.314,4.856,2.314c1.949,0,3.578-0.849,4.843-2.519c1.266-1.668,1.907-3.959,1.907-6.81
				c0-2.688-0.636-4.886-1.89-6.529C670.769,243.383,669.134,242.547,667.166,242.547z M662.31,248.109
				c0.994-1.196,2.114-1.801,3.33-1.801c1.09,0,1.972,0.456,2.622,1.358c0.654,0.908,0.979,2.159,0.969,3.724
				c0,1.817-0.329,3.239-0.977,4.229c-0.646,0.988-1.559,1.488-2.711,1.488c-1.109,0-2.197-0.605-3.233-1.798V248.109z"/>
			<path fill="#656768" d="M691.689,256.943v-8.277c0-1.894-0.656-3.403-1.951-4.487c-1.294-1.082-3.072-1.632-5.285-1.632
				c-3.025,0-5.474,1.08-7.279,3.211l-0.019,0.023l2.97,2.259l0.017-0.023c1.167-1.554,2.536-2.342,4.068-2.342h0.063
				c0.898,0,1.612,0.242,2.124,0.721c0.523,0.491,0.786,1.166,0.786,2.008v0.491c-3.748,0.379-6.467,1.226-8.08,2.513
				c-1.618,1.294-2.439,2.832-2.439,4.576c0,1.39,0.539,2.565,1.601,3.496c1.062,0.931,2.379,1.404,3.915,1.404
				c1.813,0,3.554-0.701,5.174-2.084c0.087,0.525,0.232,1.121,0.431,1.771l0.006,0.021h4.511l-0.014-0.039
				C691.89,259.362,691.689,258.148,691.689,256.943z M687.182,251.491v4.368c-1.497,1.315-2.82,1.979-3.931,1.979
				c-0.628,0-1.139-0.203-1.52-0.607c-0.382-0.404-0.576-0.947-0.576-1.618C681.155,253.643,683.182,252.256,687.182,251.491z"/>
			<rect x="696.921" y="235.34" fill="#656768" width="4.539" height="25.252"/>
		</g>
		<g>
			<path fill="#656768" d="M709.676,243.113v2.321c2.003-1.785,3.982-2.677,5.942-2.677c2.142-0.011,3.909,0.824,5.299,2.508
				c1.391,1.682,2.086,3.882,2.086,6.598c0,2.704-0.695,4.891-2.086,6.557c-1.39,1.666-3.157,2.499-5.299,2.499
				c-2.056,0-4.037-0.881-5.942-2.645v8.928h-2.369v-24.088H709.676z M709.676,247.495v8.816c2.024,1.687,3.939,2.531,5.747,2.531
				c1.504-0.011,2.727-0.644,3.669-1.899c0.942-1.255,1.411-2.971,1.411-5.146c0.011-2.12-0.47-3.798-1.444-5.032
				c-0.973-1.232-2.229-1.849-3.766-1.849C713.615,244.916,711.744,245.777,709.676,247.495z"/>
		</g>
		<g>
			<path fill="#656768" d="M737.758,257.642c-2.165,2.186-4.416,3.277-6.753,3.277c-1.482,0-2.678-0.447-3.588-1.347
				c-0.908-0.897-1.364-2.017-1.364-3.359c0-1.44,0.584-2.732,1.754-3.88c1.168-1.148,4.484-2.257,9.95-3.327v-0.438
				c0-1.397-0.331-2.394-0.99-2.994c-0.661-0.602-1.472-0.902-2.435-0.902c-2.067,0-4.107,0.979-6.12,2.937l-1.737-1.477
				c2.164-2.25,4.637-3.375,7.418-3.375c1.764,0,3.241,0.486,4.431,1.461s1.786,2.57,1.786,4.788v7.369
				c0,1.559,0.156,2.953,0.471,4.188h-2.37C737.93,259.62,737.779,258.648,737.758,257.642z M737.758,256.277v-5.55
				c-4.059,0.931-6.607,1.801-7.645,2.613c-1.039,0.813-1.564,1.759-1.575,2.841c0.01,0.778,0.306,1.417,0.884,1.915
				c0.579,0.498,1.328,0.746,2.248,0.746C733.359,258.842,735.388,257.989,737.758,256.277z"/>
		</g>
		<g>
			<path fill="#656768" d="M750.306,260.563l-6.705-17.449h2.629l5.308,14.268l5.292-14.268h2.661l-7.125,18.57
				c-0.813,2.143-1.481,3.517-2.006,4.122c-0.525,0.607-1.203,1.064-2.036,1.372c-0.833,0.308-1.824,0.463-2.971,0.463
				c-0.498,0-1.25-0.087-2.256-0.26l0.601-2.273c0.519,0.121,1.082,0.18,1.687,0.18c1.05,0,1.938-0.198,2.663-0.593
				C748.774,264.299,749.525,262.923,750.306,260.563z"/>
		</g>
		<g>
			<path fill="#656768" d="M765.708,247.936v12.627h-2.401v-17.449h2.401v2.759c3.019-2.077,5.358-3.115,7.013-3.115
				c2.077,0,3.485,1.038,4.22,3.115c2.045-1.385,3.547-2.25,4.505-2.597c0.958-0.345,1.849-0.518,2.67-0.518
				c1.299-0.011,2.362,0.427,3.191,1.315c0.826,0.888,1.241,2.049,1.241,3.49v13.001h-2.403V248.26c0-0.963-0.251-1.764-0.755-2.403
				c-0.502-0.639-1.159-0.952-1.972-0.94c-1.362,0-3.458,1.007-6.281,3.019v12.627h-2.387V248.26c0-0.942-0.24-1.734-0.721-2.378
				c-0.481-0.644-1.15-0.965-2.006-0.965C770.638,244.916,768.533,245.923,765.708,247.936z"/>
		</g>
		<g>
			<path fill="#656768" d="M806.061,255.286l1.915,1.365c-2.12,2.846-4.512,4.268-7.173,4.268c-2.134,0.011-3.916-0.819-5.349-2.49
				c-1.433-1.673-2.157-3.893-2.168-6.664c0-2.695,0.707-4.87,2.12-6.525c1.41-1.657,3.133-2.483,5.169-2.483
				c1.903-0.011,3.606,0.737,5.105,2.248c1.499,1.508,2.264,3.859,2.296,7.052h-12.319c0.087,2.111,0.605,3.768,1.559,4.975
				c0.952,1.207,2.104,1.81,3.458,1.81C802.674,258.842,804.471,257.658,806.061,255.286z M795.755,249.93h9.77
				c-0.162-1.623-0.703-2.91-1.623-3.861c-0.92-0.954-2.008-1.429-3.264-1.429c-1.33,0-2.467,0.527-3.407,1.581
				C796.289,247.276,795.796,248.513,795.755,249.93z"/>
		</g>
		<g>
			<path fill="#656768" d="M815.037,247.075v13.488h-2.369v-17.449h2.369v2.029c2.641-1.591,4.854-2.385,6.639-2.385
				c1.484,0,2.673,0.5,3.572,1.502c0.897,1,1.346,2.35,1.346,4.049v12.255h-2.353v-11.639c0-2.65-0.995-3.976-2.988-3.976
				C819.524,244.948,817.452,245.656,815.037,247.075z"/>
		</g>
		<g>
			<path fill="#656768" d="M833.477,243.113v-6.347h2.337v6.347h4.352v2.159h-4.352v10.747c0,1.97,0.883,2.953,2.647,2.953
				c0.301,0,0.87-0.087,1.705-0.26v2.111c-0.888,0.107-1.575,0.162-2.063,0.162c-1.677,0-2.866-0.345-3.569-1.031
				c-0.705-0.687-1.057-1.826-1.057-3.416v-11.265h-3.051v-2.159H833.477z"/>
		</g>
		<g>
			<path fill="#656768" d="M841.884,257.543l2.029-1.429c1.819,1.819,3.636,2.727,5.454,2.727c1.136-0.011,2.052-0.292,2.75-0.844
				c0.698-0.552,1.043-1.244,1.031-2.077c0-1.657-1.65-2.825-4.95-3.505c-3.832-0.781-5.747-2.442-5.747-4.984
				c0-1.342,0.552-2.456,1.655-3.343c1.105-0.888,2.538-1.33,4.302-1.33c2.629,0,4.745,0.892,6.347,2.677l-1.801,1.607
				c-1.322-1.513-2.825-2.271-4.514-2.271c-1.082,0-1.949,0.228-2.604,0.689c-0.655,0.459-0.988,1.064-1,1.81
				c0,1.417,1.322,2.38,3.962,2.889c4.5,0.876,6.753,2.77,6.753,5.68c0,1.451-0.566,2.661-1.698,3.629
				c-1.13,0.967-2.615,1.451-4.455,1.451C846.834,260.919,844.329,259.794,841.884,257.543z"/>
		</g>
	</g>
</g>
</svg>
